<svg id="Layer_1" data-name="Layer 1" xmlns="http://www.w3.org/2000/svg" viewBox="0 0 561 670"><defs><style>.cls-1{fill:#310173;}.cls-2{fill:#e73493;}.cls-3{fill:#fff;}</style></defs><rect class="cls-1" width="561" height="670"/><path class="cls-2" d="M654.42,493.26a2.45,2.45,0,0,0-.86-2.06c-1.65-1.93-3.32-3.85-4.95-5.79-2.51-3-5-6-7.52-9-1.56-1.83-3.21-3.58-4.79-5.39s-3.27-3.71-4.8-5.65c-1.19-1.51-1.16-2.42.2-3.81s3-2.81,4.59-4.13c2.63-2.2,5.32-4.34,8-6.53,1.16-1,2.28-2,3.41-3l9.57-8.45a3.9,3.9,0,0,0,.53-.79,3.12,3.12,0,0,0-1.83-1.69c-3.68-2-7.35-4-11.06-6-6-3.14-11.92-6.24-17.88-9.38-1.21-.64-2.36-1.4-3.53-2.12a3.55,3.55,0,0,1-1.83-2.45c.24-.6.54-1.43.93-2.21,2.5-5.05,5-10.08,7.54-15.13,2.13-4.31,4.19-8.65,6.3-13,.9-1.85,1.87-3.68,2.77-5.53a10,10,0,0,0,.45-1.41,6.2,6.2,0,0,0-1.23-.43c-2.93-.31-5.87-.57-8.8-.89s-5.58-.66-8.37-1c-3.06-.36-6.12-.72-9.19-1.05-2.59-.28-5.18-.52-7.77-.76-1.77-.17-3.56-.25-5.32-.49a30.49,30.49,0,0,1-4.23-.86c-1.73-.49-2.28-1.45-2-3.28s.77-3.35,1-5.05c.6-4.28,1.1-8.58,1.66-12.87.31-2.39.73-4.76,1-7.14.41-3.69.71-7.38,1.09-11.07a36,36,0,0,1,.54-3.87,8.54,8.54,0,0,1,.74-1.79,2.19,2.19,0,0,1,2.43,0,8.42,8.42,0,0,1,1.35.95c2.4,2.15,4.84,4.27,7.17,6.5,2.58,2.47,5,5.06,7.59,7.56a90.48,90.48,0,0,1,8.92,10.25c2.43,3.24,5,6.41,7.25,9.76a137.58,137.58,0,0,1,9.27,15.08,183.81,183.81,0,0,1,12.07,30,162.94,162.94,0,0,1,4.2,18.25c.73,4,1.24,8,1.73,12,.34,2.75,0,5.51.39,8.21.52,4.12.27,8.24.36,12.35.09,3.92-.46,7.8-.74,11.7a130.77,130.77,0,0,1-2.54,16.47,148.85,148.85,0,0,1-6.77,23.53A177.19,177.19,0,0,1,642,533.12c-1.68,3.15-3.44,6.26-5.36,9.27a123.83,123.83,0,0,1-8.22,11.85c-2.12,2.61-4.31,5.17-6.47,7.75-.44.53-1,1-1.35,1.55a59.47,59.47,0,0,1-7.27,7.86c-2.43,2.32-5,4.47-7.46,6.78a79.64,79.64,0,0,1-7.23,6.13,208,208,0,0,1-19,12.7,10,10,0,0,1-4,1.55c-1.5-.82-1.71-1.15-1.44-2.75.3-1.83.73-3.64,1-5.47.59-3.8,1.08-7.61,1.66-11.42.33-2.17.73-4.33,1.18-6.49.39-1.93,1-2.39,3-2.4a18.31,18.31,0,0,1,2.86.25c4.07.6,8.13,1.27,12.21,1.85,2.1.31,4.22.49,6.32.73l2.86.32a2.93,2.93,0,0,0,2.06-.24,3.81,3.81,0,0,0,.17-.76c0-2.34,0-4.67-.13-7-.2-4.12-.45-8.22-.74-12.33-.21-3.08-.52-6.15-.75-9.23-.11-1.53.5-2.26,2.11-2.46,2.52-.32,5-.56,7.56-.85,1.23-.14,2.44-.4,3.67-.46,3.16-.16,6.31-.32,9.47-.33a46,46,0,0,0,6.32-.78,2.72,2.72,0,0,0,.67-.31,2.43,2.43,0,0,0-.19-2.07c-.77-2.2-1.54-4.41-2.38-6.59q-3-7.77-6.12-15.52c-.74-1.86-1.54-3.68-2.27-5.53-.28-.7-.45-1.43-.6-1.92a2.37,2.37,0,0,1,1.71-1.92c5.6-2.28,11.19-4.58,16.8-6.83,3.56-1.43,7.17-2.78,10.75-4.18A7.15,7.15,0,0,0,654.42,493.26Z" transform="translate(-218.25 -165)"/><path class="cls-2" d="M422.43,598.67c-.73-.27-1.5-.51-2.22-.85A88.07,88.07,0,0,1,409,591.24a156.27,156.27,0,0,1-13.3-9.74q-2.37-2-4.65-4c-2.29-2.08-4.58-4.15-6.78-6.31a156.59,156.59,0,0,1-13.5-15.27c-3.61-4.6-6.73-9.52-9.95-14.39-3.46-5.24-6.11-10.89-8.91-16.48-3-6-5.15-12.27-7.44-18.53a88.57,88.57,0,0,1-2.85-10.1c-.62-2.67-1.48-5.29-2.06-8a134.08,134.08,0,0,1-2.33-15.05,199.93,199.93,0,0,1-.67-26.35,115.42,115.42,0,0,1,2-18.82,180.77,180.77,0,0,1,6.07-24,157.81,157.81,0,0,1,6.25-16.36c1.26-2.66,2.61-5.29,4-7.89,1.9-3.5,3.88-7,5.84-10.42a86.17,86.17,0,0,1,7.31-10.48c2.71-3.45,5.51-6.84,8.27-10.26a6.53,6.53,0,0,1,.53-.63c3.17-3.33,6.27-6.74,9.55-10,2.84-2.79,5.87-5.38,8.87-8a4.15,4.15,0,0,1,3.43-1.36,1.79,1.79,0,0,1,1,1.56c.28,2.38.57,4.76.82,7.15.38,3.68.68,7.37,1.12,11.05.55,4.56,1.18,9.12,1.84,13.67.39,2.64.9,5.27,1.37,7.91a5,5,0,0,1-.21,3.25c-.86,1.06-2.15,1.17-3.35,1.32-4.76.59-9.53,1.29-14.31,1.59-5.91.37-11.73,1.28-17.57,2.08-3,.41-6,.57-9,.88-.66.07-1.4-.06-1.93.58-.33.8.18,1.44.5,2.1q2,4.17,4,8.33c2.49,5.06,5,10.11,7.49,15.15,1.45,2.88,3,5.72,4.48,8.58.26.49.49,1,.71,1.49a2.94,2.94,0,0,1-1.47,4.28c-4.34,2.23-8.62,4.56-12.93,6.85l-6.55,3.49-12,6.41a6.28,6.28,0,0,0-2.5,1.84c.15,1,.87,1.22,1.37,1.67,2.56,2.28,5.26,4.44,7.66,6.88,2.76,2.8,5.86,5.18,8.81,7.74,1.72,1.49,3.53,2.86,5.27,4.31.73.62,1.41,1.3,2.09,2,2.05,2.08,2.13,2.87.33,5.09-1.42,1.77-2.95,3.45-4.41,5.18-2.72,3.19-5.41,6.4-8.15,9.57-2.2,2.55-4.48,5-6.7,7.56-.9,1-1.74,2.11-2.58,3.2a6.08,6.08,0,0,0-.51,1c.19,1.06,1,1.24,1.67,1.5,2.11.84,4.24,1.62,6.35,2.44,5.89,2.29,11.79,4.56,17.66,6.9a11.31,11.31,0,0,1,4.18,2.35,3.36,3.36,0,0,1-.11,3.08c-1.29,3.19-2.6,6.37-3.87,9.56q-3.62,9.09-7.2,18.21c-.19.5-.31,1-.5,1.65a4.54,4.54,0,0,0,1.14.53,58,58,0,0,0,6.54.66,86.33,86.33,0,0,1,11.7.77c2.85.4,5.74.58,8.6.86.34,0,.68.13.94.18a2.34,2.34,0,0,1,1.32,2.24,8.55,8.55,0,0,1,0,1.24c-.22,2.45-.46,4.91-.69,7.37a8.78,8.78,0,0,0-.09,1c.08,4.06-.44,8.08-.76,12.11-.18,2.19,0,4.4,0,6.6a4.63,4.63,0,0,0,.23,1,3.73,3.73,0,0,0,3,.38c5.37-.74,10.73-1.53,16.09-2.29,2-.29,4.07-.58,6.12-.8a24.86,24.86,0,0,1,2.59,0,3.86,3.86,0,0,1,1.5,2.72q.63,3.23,1.11,6.49c.81,5.64,1.58,11.28,2.39,16.92A2.26,2.26,0,0,1,422.43,598.67Z" transform="translate(-218.25 -165)"/><path class="cls-2" d="M340.23,711.77c.4-.69,1.11-.72,1.8-.72,3.91,0,7.83,0,11.74,0a4.23,4.23,0,0,1,3,1.28,17.84,17.84,0,0,1,2,2.31c3.37,4.6,6.7,9.23,10.07,13.82a14.79,14.79,0,0,0,2.87,3c-.19-3.26-.49-6.52-.54-9.79a63.48,63.48,0,0,1,.21-9.84c3.77-1.32,7.4-.64,10.7-.74a2.37,2.37,0,0,1,1.52,2.37c0,2.06-.13,4.11-.22,6.17,0,.82-.14,1.64-.15,2.46,0,1.92,0,3.85,0,5.77s-.24,3.69-.34,5.54c-.05.82-.07,1.65-.07,2.47,0,4.74,0,9.48,0,14.23,0,.88-.1,1.76-.17,2.78a6.09,6.09,0,0,1-1.86.81,29.76,29.76,0,0,1-4.72-.08,6.35,6.35,0,0,1-4.43-2.71c-3-3.86-6.07-7.63-9.08-11.47-1.69-2.17-3.3-4.4-5-6.58-.4-.53-.66-1.23-1.6-1.37a5,5,0,0,0-.4,1.06c-.42,2.57-.86,5.14-1.19,7.73-.49,3.94-.9,7.9-1.35,11.86a2.78,2.78,0,0,1-.17.56,2.71,2.71,0,0,1-2.36,1.09c-2.75,0-5.49.06-8.24,0-1.91-.06-2.63-1-2.1-2.87,2.21-7.67,3.18-15.61,5-23.37.3-1.27.55-2.55.91-3.81a4,4,0,0,0-.7-3.7c-.69-.94-1.46-1.82-2.15-2.76q-1.35-1.82-2.59-3.71A1.87,1.87,0,0,1,340.23,711.77Z" transform="translate(-218.25 -165)"/><path class="cls-2" d="M389.48,712a3.3,3.3,0,0,1,2.55-1c5.63,0,11.27-.16,16.9.07A38.39,38.39,0,0,1,421,713.51c5.87,2.22,9.24,6.65,11,12.47.15,2.79,1,5.54.36,8.38-.31,1.4-.25,2.9-.69,4.25A19.5,19.5,0,0,1,422,750.35a30.14,30.14,0,0,1-11.43,3.09c-5.43.51-10.84.23-16.26.33a15.64,15.64,0,0,1-3-.4,2.17,2.17,0,0,1-1.8-2,19.83,19.83,0,0,1-.15-2.67q0-14.12,0-28.24c0-2.2-.14-4.39-.14-6.58A9.25,9.25,0,0,1,389.48,712ZM402,721.47a15.9,15.9,0,0,0-.24,1.82q0,9.15,0,18.3a2.38,2.38,0,0,0,.77,2.16,3.28,3.28,0,0,0,.86.21,61.5,61.5,0,0,0,6.37-.08c8.08-.83,11-8.39,9.5-14.22-1.21-4.59-4.38-7.26-9.12-8.1a33.63,33.63,0,0,0-6.34-.34,13.44,13.44,0,0,0-1.8.25Z" transform="translate(-218.25 -165)"/><path class="cls-2" d="M597.22,731.44a24,24,0,0,1-3.41,12.91c-3.19,5.51-8.26,8.52-14.39,9.72a24.82,24.82,0,0,1-17.26-3,19.08,19.08,0,0,1-6.69-6.58A19.75,19.75,0,0,1,552.2,734c-.1-5.61,1-10.89,4.56-15.48a19.32,19.32,0,0,1,6.83-5.5,26,26,0,0,1,7.76-2.65c9-1.3,16.53,1.35,22.1,8.77a11.5,11.5,0,0,1,1.7,3C596.27,725.37,597.49,728.54,597.22,731.44Zm-13.36.84h0c0-.89,0-1.78,0-2.67.25-4.85-5.81-10.38-10.67-8.42a7,7,0,0,1-1,.22,8.26,8.26,0,0,0-6.43,6.25,17.25,17.25,0,0,0-.1,9.53c.91,3.31,4.29,7.07,8.26,6.86a2.62,2.62,0,0,1,.62.07A7.06,7.06,0,0,0,580.9,742a10.1,10.1,0,0,0,2.94-6.61c.08-1,0-2.06,0-3.09Z" transform="translate(-218.25 -165)"/><path class="cls-2" d="M500.5,752.39a2.24,2.24,0,0,1-2.21,1.35c-2.68,0-5.36,0-8,0a8.3,8.3,0,0,1-2-.52c-1.91-1.7-1.72-4.35-3.22-6a3.94,3.94,0,0,0-2.69-.35c-1.43.12-2.86.29-4.3.32-2.61,0-5.22,0-7.82,0-2.93,0-3.18.22-4.16,2.94-.37,1-.9,2-1.33,2.9-3.37,1.28-6.7.56-9.95.73a2.81,2.81,0,0,1-2.33-.62c-.41-.69-.07-1.31.2-1.94l11.56-26.64c.58-1.32,1.13-2.65,1.74-4a3.54,3.54,0,0,0,.05-2.8c-.45-1.22-.88-2.45-1.27-3.7a2.69,2.69,0,0,1,0-2.35,2.13,2.13,0,0,1,1.88-.72q8.23,0,16.48,0a6.87,6.87,0,0,1,1,.17,13.43,13.43,0,0,1,1.15,1.74c.47,1,.81,2,1.22,3.06q3.62,9.09,7.26,18.17c1.94,4.84,3.92,9.66,5.86,14.51A7.69,7.69,0,0,1,500.5,752.39Zm-19.72-16.26c0-2.51-2.49-9.64-4.2-12.08a4.14,4.14,0,0,0-.58.81q-2,5-4,10.11a4.82,4.82,0,0,0-.13,1.31C474.08,736.78,479.27,736.7,480.78,736.13Z" transform="translate(-218.25 -165)"/><path class="cls-2" d="M669.61,730.58l1.54,1.35c3.29,3,4.68,6.49,3.58,10.9-1.49,5.95-5.56,9.15-11.27,10.43a39.66,39.66,0,0,1-22.11-1.32,3.74,3.74,0,0,1-.42-.27,4.38,4.38,0,0,1-.79-3c.09-1.57.17-3.15.25-4.72a3.19,3.19,0,0,1,.84-2.51,3.88,3.88,0,0,1,1.36-.06,21.47,21.47,0,0,1,3.5,1.17,11.42,11.42,0,0,0,4.77,1.11,12.09,12.09,0,0,1,2.24.24,14.62,14.62,0,0,0,6.51-.56c1.81-.47,2.81-3.3,1.9-4.95a2,2,0,0,0-1.91-1c-1.44,0-2.87.12-4.31.16-2.54.07-5.08.13-7.61.15a4.78,4.78,0,0,1-1.29-.32,12.18,12.18,0,0,1,.54-9,1.65,1.65,0,0,1,.53-.22c2.74-.1,5.48-.17,8.22-.29a19.5,19.5,0,0,0,3.05-.34,3.39,3.39,0,0,0,2.33-2.16,2.35,2.35,0,0,0-1.06-3,7.18,7.18,0,0,0-3.72-1,34,34,0,0,0-8.76,1.06c-1.81.4-3.58,1-5.36,1.47a3.12,3.12,0,0,1-2.75-.07,2.6,2.6,0,0,1-.66-1.92,43.65,43.65,0,0,1,1-8.72,12.54,12.54,0,0,1,1.76-.68c3-.68,6-1.31,9-2a3.61,3.61,0,0,1,.81-.13c3.77,0,7.55-.36,11.29.4a20.83,20.83,0,0,1,8.91,4.07,7.31,7.31,0,0,1,2.72,5.35c.32,3.72-.65,6.95-3.78,9.27a4,4,0,0,0-.6.57A3.19,3.19,0,0,0,669.61,730.58Z" transform="translate(-218.25 -165)"/><path class="cls-2" d="M514.77,724.16a4,4,0,0,1-.9-2.47,29.29,29.29,0,0,1,.46-7.18,2.35,2.35,0,0,1,1.9-1.94c2-.58,3.93-1.26,5.94-1.69a37.25,37.25,0,0,1,14.31-.22,18.48,18.48,0,0,1,7.86,3.45,11.47,11.47,0,0,1,4.64,9,17,17,0,0,1-4.53,12.63,30.74,30.74,0,0,1-6.79,5.93c-.5.31-1.12.53-1.29,1.28,1.57.54,3-.23,4.49-.26s3-.39,4.48-.54,2.93-.82,4.41-.46a2.9,2.9,0,0,1,1.25,2.54c0,2.4.06,4.81,0,7.21,0,1.65-.64,2.18-2.28,2.3-.48,0-1,0-1.44,0H519c-1.23,0-2.5.1-3.64-1.1a13.29,13.29,0,0,1-.09-6.28,3.79,3.79,0,0,1,1.73-2.23l11.24-8.35a42.71,42.71,0,0,0,5.69-5.06,7.35,7.35,0,0,0,2-4.41,3.44,3.44,0,0,0-1.37-3.26,6.77,6.77,0,0,0-4-1.49,31.8,31.8,0,0,0-10.51,1.75c-.92.27-1.83.59-2.75.87A3.57,3.57,0,0,1,514.77,724.16Z" transform="translate(-218.25 -165)"/><path class="cls-2" d="M599.9,724.19a10,10,0,0,1-.31-1.8c0-2.27,0-4.53,0-6.8a3,3,0,0,1,2.34-3.17,36.73,36.73,0,0,1,12.49-2.22c1.17,0,2.34,0,3.5,0a18.58,18.58,0,0,1,11.66,4,9.82,9.82,0,0,1,2.69,3.08,14.43,14.43,0,0,1,0,14.73,18.73,18.73,0,0,1-5,6.21c-1.86,1.4-3.7,2.83-5.54,4.26a8.94,8.94,0,0,0-.8.83c1.28-.06,2.22,0,3.13-.17,2.31-.31,4.61-.69,6.92-1a17,17,0,0,1,2.25-.14,14.73,14.73,0,0,1,1.63.15,2.35,2.35,0,0,1,1.12,2.09c0,2.2,0,4.4,0,6.6a2.84,2.84,0,0,1-1.08,2.22,10.67,10.67,0,0,1-4.14.76c-8.31,0-16.62,0-24.93,0a25.44,25.44,0,0,1-4.07-.51,1.74,1.74,0,0,1-1.58-1.67,42.51,42.51,0,0,1,0-4.92,3.22,3.22,0,0,1,1.64-2.26c1.36-.94,2.69-1.92,4.06-2.83a123,123,0,0,0,11.39-8.8,9.38,9.38,0,0,0,3.59-5.83c.39-2.61-.55-4.27-3.11-5a15.8,15.8,0,0,0-6.74-.13,29.3,29.3,0,0,0-8,2.51C602,724.77,601.05,725.18,599.9,724.19Z" transform="translate(-218.25 -165)"/><path class="cls-2" d="M447.65,711.06a2.48,2.48,0,0,1,1.5,2.27c0,.75,0,1.51,0,2.26,0,3.85.05,7.7,0,11.54,0,2.19-.23,4.38-.34,6.57,0,.89-.07,1.78-.07,2.67,0,4.61,0,9.21,0,13.81,0,.87-.14,1.75-.2,2.41a3.17,3.17,0,0,1-2.4,1.14,28.39,28.39,0,0,1-8.89-.6,2.73,2.73,0,0,1-.95-2.29,28.27,28.27,0,0,1,.06-4.32,59.77,59.77,0,0,0,.32-8c0-2.13,0-4.26,0-6.39s-.24-4.1-.32-6.16c-.06-1.57-.07-3.15-.08-4.73,0-2.2,0-4.4,0-6.6,0-.87.18-1.74.25-2.39a3.67,3.67,0,0,1,2.65-1.16C442.07,711,445,711.06,447.65,711.06Z" transform="translate(-218.25 -165)"/><path class="cls-2" d="M323.44,752.9a5.32,5.32,0,0,1-.53-3.11c0-6.73,0-13.47,0-20.2,0-4.59-.26-9.18-.39-13.78a17.77,17.77,0,0,1,.05-2.06c.18-2,.84-2.68,2.84-2.71,2.54,0,5.09,0,7.63,0a16,16,0,0,1,1.95.25,14.43,14.43,0,0,1,.39,2.26c0,5.63.33,11.28-.05,16.89-.44,6.52-.15,13-.33,19.55,0,.94-.12,1.89-.16,2.56a3,3,0,0,1-2.61,1.21c-2,0-4,0-6,0A4.64,4.64,0,0,1,323.44,752.9Z" transform="translate(-218.25 -165)"/><path class="cls-2" d="M393.59,394.12a20.93,20.93,0,0,1-.35,2.85,8.7,8.7,0,0,1-7.82,6.27c-2.06.08-4.13.21-6-1.05-2.84-1.94-4.94-4.36-5-8a9.75,9.75,0,0,1,5.76-8.78c5.31-2.31,9.9,0,12.51,4.33A8.58,8.58,0,0,1,393.59,394.12Z" transform="translate(-218.25 -165)"/><path class="cls-2" d="M613.56,403.26c-6.06,0-9.5-4.31-9.36-9.77.15-5.64,3.88-8.82,9.81-8.94,5.62-.11,9.07,4.69,9.21,9.4C623.35,398.42,619,403.87,613.56,403.26Z" transform="translate(-218.25 -165)"/><path class="cls-2" d="M358,441.17c-.34-4.26,3.62-8.73,8.8-8.71s8.51,3.76,8.54,8.94c0,4.8-3.24,8.48-8.66,8.43C362.3,449.8,357.63,446.68,358,441.17Z" transform="translate(-218.25 -165)"/><path class="cls-2" d="M622.67,441.08c0-6.53,5.22-9.71,10.88-8.14,5.88,1.63,9,8.9,4.13,14.27a7.87,7.87,0,0,1-8.27,2.29c-.33-.08-.65-.23-1-.32C624.35,448.07,622.77,444.4,622.67,441.08Z" transform="translate(-218.25 -165)"/><path class="cls-2" d="M375,487.42c-.36,3-1.47,5.29-4,6.75-2.38,1.36-4.86,1.88-7.41.47a10.75,10.75,0,0,1-4.29-4.32,6.24,6.24,0,0,1,0-6.11,8.32,8.32,0,0,1,8.94-4.83c3.15.47,5.1,2.52,6.23,5.37A15.11,15.11,0,0,1,375,487.42Z" transform="translate(-218.25 -165)"/><path class="cls-2" d="M623.07,487.3a7.73,7.73,0,0,1,7.87-8,8.05,8.05,0,0,1,.48,16.1C627.42,495.43,622.82,492.4,623.07,487.3Z" transform="translate(-218.25 -165)"/><path class="cls-2" d="M616.93,520.12a7.67,7.67,0,0,1,7.7,5.58,6.49,6.49,0,0,1-.21,3.65c-1.06,3.27-5.31,6.81-10.14,4.81a7.39,7.39,0,0,1-4.11-4.89,6.93,6.93,0,0,1,3.21-8.33A6,6,0,0,1,616.93,520.12Z" transform="translate(-218.25 -165)"/><path class="cls-2" d="M380.81,520a7.06,7.06,0,0,1,7.35,7.42,7.57,7.57,0,0,1-7.3,7.21c-4.37-.09-7.66-3.26-7.52-7.57S376.37,520.05,380.81,520Z" transform="translate(-218.25 -165)"/><path class="cls-2" d="M594,565.3c-3.73.35-7.09-3.57-7.11-7.09,0-4.1,3.86-6.8,6.87-6.8,3.23,0,7.19,3.47,7.17,6.92S597.62,565.62,594,565.3Z" transform="translate(-218.25 -165)"/><path class="cls-2" d="M403.91,565.32c-3.94,0-6.8-3-6.77-7.2a6.92,6.92,0,0,1,7.16-6.66c3.84,0,6.52,3.08,6.52,7.46C410.82,562.41,407.7,565.3,403.91,565.32Z" transform="translate(-218.25 -165)"/><path class="cls-3" d="M498.21,546.55c-.45.53-.94,1.08-1.41,1.66a11,11,0,0,1-8.32,4.31A83.62,83.62,0,0,0,472.84,555q-2.49.6-5,1.33a50.92,50.92,0,0,0-9.71,4c-1.08.57-2.21,1.19-3.54.6-.79-1-.28-1.84.38-2.56a44.94,44.94,0,0,1,3.77-3.79c2.08-1.79,4.28-3.44,6.42-5.17a68.61,68.61,0,0,1,9.08-5.67c1.18-.68,2.43-1.26,3.64-1.91a6.69,6.69,0,0,0,.86-.65,6.28,6.28,0,0,0-.39-1.18c-4.4-7.63-8-15.66-11.65-23.64q-4.41-9.54-8.57-19.2c-1.79-4.16-3.39-8.4-5-12.63-2.43-6.27-4.91-12.54-7.2-18.86-2-5.42-3.7-10.92-5.51-16.4-4.94-14.94-9.13-30.11-12.69-45.44-2-8.83-3.73-17.74-5.37-26.66-1.35-7.36-2.44-14.77-3.56-22.18-.48-3.12-.73-6.27-1.11-9.41-.3-2.52-.7-5-1-7.55s-.44-4.92-.65-7.39-.48-5.19-.65-7.79c-.11-1.57-.11-3.15-.12-4.73a3,3,0,0,1,1.56-2.73c.8-.53,1.63-1,2.48-1.47q7-3.44,14.11-6.8c1.24-.59,2.53-1.07,3.76-1.67a109,109,0,0,1,17.24-6.2,115.37,115.37,0,0,1,15.05-3.41c4.88-.74,9.75-1.54,14.63-2.31a5.58,5.58,0,0,1,.82-.11c5.14-.16,10.29-.55,15.42-.36,3.15.12,6.31.17,9.45.36,2.12.13,4.22.5,6.33.78,2.78.37,5.58.68,8.35,1.15,5.88,1,11.73,2.2,17.51,3.73a132.56,132.56,0,0,1,20.42,7.08c4.83,2.15,9.57,4.51,14.3,6.86a30.63,30.63,0,0,1,4,2.59,4,4,0,0,1,1.67,3.35,77.52,77.52,0,0,1-.67,11.5c-.23,2-.38,4-.57,5.94-.15,1.64-.26,3.28-.44,4.91-.42,3.82-.8,7.64-1.33,11.45-.72,5.23-1.53,10.45-2.35,15.67-.52,3.26-1.06,6.51-1.71,9.74-1.78,8.81-3.54,17.63-5.48,26.41-1.11,5-2.5,10-3.83,15-1.52,5.7-3.06,11.41-4.69,17.09-1.13,4-2.39,7.88-3.67,11.8-1.9,5.81-3.79,11.62-5.82,17.38-1.65,4.66-3.5,9.26-5.28,13.87-1.14,2.94-2.38,5.85-3.47,8.81-2.76,7.48-5.91,14.79-9.25,22-2.1,4.55-4.14,9.13-6.28,13.66-1.17,2.48-2.49,4.89-3.72,7.34q-2.1,4.24-4.16,8.5a10.69,10.69,0,0,0-.42,1.36,8.81,8.81,0,0,0,2.9,2c2,1.1,4,2.09,6,3.25a47.38,47.38,0,0,1,4.06,2.82c2.42,1.81,4.85,3.6,7.17,5.53a28.67,28.67,0,0,1,3.41,3.56,2.13,2.13,0,0,1,.39,2.78c-.86.35-1.52-.12-2.2-.41-3.3-1.37-6.58-2.77-9.89-4.12a22.83,22.83,0,0,0-3.13-1,99.61,99.61,0,0,0-12.06-2.6c-2-.25-4-.41-5.94-.59a13.9,13.9,0,0,1-9.57-4.61A3.09,3.09,0,0,0,498.21,546.55Zm19.4-172.95c1.08.92.85,2.18.77,3.41-.11,1.5-.3,3-.34,4.5-.15,5.35.25,10.7-.34,16.06-.33,3.06-.06,6.16-.42,9.25s-.35,6.3-.5,9.45c0,.2,0,.41,0,.61-.24,2.87-.53,5.74-.72,8.61s-.29,6-.48,9c-.11,2-.3,4-.47,6-.24,2.73-.5,5.46-.75,8.19-.17,1.91-.31,3.83-.49,5.74-.22,2.32-.47,4.63-.7,6.95-.16,1.64-.32,3.28-.43,4.92-.18,2.67-.26,5.34-.49,8-.36,4-.82,8-1.22,12.07-.17,1.71-.29,3.42-.47,5.12q-.33,3.28-.71,6.55c-.35,3.06-.71,6.13-1.07,9.19-.32,2.59-.68,5.17-1,7.76-.22,2-.32,4-.58,5.94-.69,5.24-1.45,10.47-2.15,15.7a5.25,5.25,0,0,0,.2,1.43h2.38c.4-.73.79-1.36,1.09-2,.51-1.12.9-2.3,1.43-3.42,3.28-6.89,6.18-13.94,8.82-21.1,3-8.18,5.92-16.41,8.3-24.81,3.25-11.51,6.3-23.07,9-34.72.64-2.82,1.27-5.63,1.84-8.46.93-4.58,1.79-9.17,2.68-13.76.62-3.23,1.28-6.46,1.84-9.71q1.32-7.62,2.51-15.25c.74-4.82,1.47-9.65,2.1-14.48.71-5.38,1.31-10.77,1.95-16.15.34-2.8.67-5.6,1-8.39.39-3.62.74-7.24,1.13-10.86.27-2.53.64-5,.86-7.57.45-5.13.83-10.26,1.22-15.39,0-.51.2-1.09-.45-1.56a10,10,0,0,0-.79,1.24A53.9,53.9,0,0,1,544,344a43.54,43.54,0,0,1-8.33,7.94c-2.66,1.93-5.47,3.67-8.3,5.36A47.36,47.36,0,0,1,512,363.13a64.12,64.12,0,0,1-9.36,1.33,61.57,61.57,0,0,1-15.39-.81,44.83,44.83,0,0,1-7.71-2.17,2.68,2.68,0,0,1-1.8-2.08,11.25,11.25,0,0,1-.24-2.45c.09-2.88.35-5.76.37-8.64a52.11,52.11,0,0,1,.62-7.38c.09-.61.15-1.23.22-1.84a89.23,89.23,0,0,1,2.64-13.54c.33-1.18.82-2.33,1.18-3.51a5,5,0,0,0,0-1.28,4.61,4.61,0,0,0-1.69,2,76.87,76.87,0,0,0-6,11c-1.95,4.47-3.84,8.95-4.34,13.89-.23,2.25-.75,4.46-1.19,6.68a4.9,4.9,0,0,1-.55,1.21c-2-.17-2.24-.32-3.19-1.69,0-2.81-.14-5.49,0-8.15.26-3.91.76-7.79,1.14-11.69A59.4,59.4,0,0,1,469,322.52c.26-.85.48-1.72.66-2.59a9.27,9.27,0,0,0,0-1.49c-.74.87-1.23,1.42-1.69,2a67.81,67.81,0,0,0-7.56,13.21,28.5,28.5,0,0,0-3.06,10.2,2.12,2.12,0,0,1-.92,1.75c-.89.28-1.47-.26-2-.81-.89-1-1.74-1.94-2.56-3a53.44,53.44,0,0,1-7.07-11.34c-.06-.12-.23-.2-.49-.41.25,2.78.53,5.37.7,8,.21,3,.32,6,.47,9,0,.34,0,.68.08,1,.23,2,.48,3.95.7,5.93q.6,5.52,1.19,11c.17,1.57.32,3.14.48,4.71.23,2.11.43,4.23.68,6.34.31,2.59.66,5.17,1,7.76q.58,4.38,1.2,8.76c.43,3.06.84,6.12,1.3,9.18.49,3.25,1,6.51,1.55,9.75q1.67,9.54,3.4,19.06c.8,4.32,1.6,8.64,2.52,12.94,1.22,5.64,2.49,11.27,3.87,16.87,1.31,5.33,2.86,10.6,4.16,15.94,1.77,7.29,4.1,14.4,6.39,21.53a323.1,323.1,0,0,0,12.58,32.91c.9,2,1.93,3.95,2.94,5.9.46.89,1.06,1.62,2.22,1.27a2.82,2.82,0,0,0,.47-2.37c-.22-1.64-.49-3.27-.69-4.9-.5-4-1-8.05-1.44-12.07s-1-8.32-1.45-12.48q-.77-6.75-1.51-13.51c-.2-1.77-.39-3.55-.55-5.33-.2-2.18-.35-4.38-.54-6.56q-.56-6.36-1.13-12.72c-.21-2.39-.46-4.78-.66-7.17q-.51-6.06-1-12.11c-.19-2.39-.35-4.79-.54-7.18-.14-1.78-.31-3.56-.46-5.34-.21-2.39-.44-4.78-.63-7.17s-.29-4.94-.52-7.4a100.21,100.21,0,0,1-.74-12.12c0-.61,0-1.23-.07-1.85L479.58,394c-.11-2.06-.24-4.11-.33-6.16q-.27-5.87-.47-11.73a2.79,2.79,0,0,1,.63-2.3,3,3,0,0,1,2.39-.17,41.85,41.85,0,0,0,5,1.25c3.53.43,7.09.81,10.65.89,3.07.08,6.16-.27,9.24-.44.2,0,.4-.07.61-.09a50.24,50.24,0,0,0,7.87-1.55,3.39,3.39,0,0,1,2.45,0Z" transform="translate(-218.25 -165)"/><path class="cls-3" d="M432,601.28a2.37,2.37,0,0,1-.4-2.32c1.67-7.08,4.05-13.86,8.45-19.76a51.39,51.39,0,0,1,5.16-6.15,45,45,0,0,1,7.9-6.25l2.79-1.75c4.64-2.93,9.78-4.64,15-6.23s10.36-2.06,15.53-3.13a3.1,3.1,0,0,1,3.31,1.15c1.08,1.42,2.19,2.83,3.13,4.34,1.52,2.45,2.92,5,4.38,7.46.34.58.53,1.3,1.33,1.46.74-.1.95-.74,1.26-1.25,2.16-3.51,4.3-7,6.45-10.55a12.56,12.56,0,0,1,.9-1.38,3.22,3.22,0,0,1,3.09-1.26,109.17,109.17,0,0,1,13,2.3,79.94,79.94,0,0,1,14.58,5,53,53,0,0,1,13.84,9.56,56.23,56.23,0,0,1,9.84,13.14,41.9,41.9,0,0,1,4.26,13.49c.15.84.08.9-.77,2.25a20.25,20.25,0,0,1-2.06,0,5.52,5.52,0,0,1-1.39-.39c-5.84-2-11.83-3.52-17.84-5-5.36-1.3-10.81-1.88-16.22-2.72-2-.32-4.07-.7-6.11-.91-2.93-.31-5.86-.55-8.81-.71a48.23,48.23,0,0,1-6.57-.36,17.58,17.58,0,0,0-3.7-.09c-3.56.09-7.12-.22-10.69.38a41.38,41.38,0,0,1-5.35.08c-1.43,0-2.86.19-4.3.3a7.35,7.35,0,0,1-.82.07,67.27,67.27,0,0,0-12.26,1.26c-4.13.64-8.27,1.29-12.38,2.06a146.18,146.18,0,0,0-19,5.2c-.78.27-1.57.5-2.37.72A4.89,4.89,0,0,1,432,601.28Z" transform="translate(-218.25 -165)"/><path class="cls-3" d="M556.4,291.07a2.71,2.71,0,0,1-2.5.11c-2.84-.81-5.66-1.66-8.51-2.45a143.7,143.7,0,0,0-15.25-3.44c-1-.16-2-.37-3-.6a72.64,72.64,0,0,0-10.79-1.44c-2.73-.21-5.46-.51-8.18-.75-.76-.06-1.51-.06-2.27-.06H492.69a24.89,24.89,0,0,0-6.15.36,3.5,3.5,0,0,1-1,.06,49.76,49.76,0,0,0-8.18.74c-4,.59-8,1.11-12,1.84-3,.55-6,1.47-9,2.06a97,97,0,0,0-10.73,2.88c-.72.23-1.45.42-2.19.58a1.83,1.83,0,0,1-2.18-.95,13.05,13.05,0,0,1,1.13-4.88c.73-1.92,1.52-3.83,2.29-5.74a8.76,8.76,0,0,1,.49-1.13,60.88,60.88,0,0,1,7.8-11.6c1.05-1.18,2-2.44,3.15-3.53a74.14,74.14,0,0,1,10-8,60,60,0,0,1,12.11-6.1,50.9,50.9,0,0,1,14-3.25c2.95-.24,5.89-.34,8.84-.35a53,53,0,0,1,16.55,2.92,12.43,12.43,0,0,1,1.39.64c0,.45.05.9.09,1.51-3.8,2.08-7.63,4.09-10.89,7s-6.26,5.71-8.51,9.49a4.84,4.84,0,0,0,.75-.39A61.35,61.35,0,0,1,514.8,258a59.87,59.87,0,0,1,6.75-2.47c1.19-.33,2.3-.9,3.48-1.28a8.64,8.64,0,0,1,2.19-.41,1.17,1.17,0,0,1,1.29,1v0c0,.85-.66,1.29-1.23,1.79-2.19,1.87-4.43,3.69-6.53,5.66s-3.85,3.9-5.75,5.88a6.36,6.36,0,0,0-.55,1.07,15.27,15.27,0,0,0,1.56-1c4.85-3.84,10.45-6.3,16.06-8.73.38-.16.8-.24,1.17-.4a4.34,4.34,0,0,1,4.8.76,9.67,9.67,0,0,1,1.1.93,66.58,66.58,0,0,1,13.13,17.83,79.89,79.89,0,0,1,3.54,8.11C556.52,288.85,556.65,289.56,556.4,291.07Z" transform="translate(-218.25 -165)"/><path class="cls-3" d="M489.11,679.07c-.45,1.25-.85,2.18-1.13,3.15-1,3.5-1.94,7-2.9,10.52-.27,1-.47,2-.77,3a19.29,19.29,0,0,1-.8,1.94,8.41,8.41,0,0,1-4.05.35,2.58,2.58,0,0,1-2.14-1.73,27.67,27.67,0,0,1-1.19-3.06q-3.53-11.31-7-22.63c-.29-.91-.56-1.82-.85-2.76.33-.29.55-.59.84-.69a17,17,0,0,1,6,.06A10.67,10.67,0,0,1,476,669c.88,2.89,1.67,5.81,2.52,8.7.63,2.17,1.31,4.33,2.07,6.83a9,9,0,0,0,.62-1.19c.55-1.92,1.06-3.84,1.62-5.76q1.26-4.35,2.58-8.68a13.6,13.6,0,0,1,.74-1.65,11.89,11.89,0,0,1,5-.24,2.13,2.13,0,0,1,1.84,1.48,32.14,32.14,0,0,1,1.11,3.31c1,3.93,1.85,7.88,2.79,11.82.12.52.34,1,.58,1.71a4.88,4.88,0,0,0,1-2.37c.77-3,1.51-6,2.32-9,.43-1.59,1-3.15,1.48-4.71a3.13,3.13,0,0,1,3.18-2.43c.68,0,1.35-.26,2-.32a2.46,2.46,0,0,1,2.57,1c-.11.55-.19,1.29-.39,2-.65,2.24-1.31,4.48-2,6.7-1.28,4-2.6,8-3.9,11.94-.81,2.48-1.63,5-2.41,7.45-.62,1.94-1.21,2.41-3.25,2.46a20.23,20.23,0,0,1-2.06,0,2.39,2.39,0,0,1-2.29-2q-1.74-7-3.5-14A9.47,9.47,0,0,0,489.11,679.07Z" transform="translate(-218.25 -165)"/><path class="cls-3" d="M480.05,627.58l1.19,2.07q3.33,5.79,6.68,11.58a11.05,11.05,0,0,0,1.14,1.4,8.23,8.23,0,0,0,.76-1c.89-1.62,1.73-3.28,2.64-4.89,1.31-2.34,2.72-4.62,4-7s3.08-2.81,6.15-2.56a7.18,7.18,0,0,1,1.29.33,2.43,2.43,0,0,1,.95,2.08c0,.75,0,1.51,0,2.26q0,11.34,0,22.68c0,1.07.19,2.22-1,3.3l-5.49.52a2.23,2.23,0,0,1-1.06-2.26c0-4.33.14-8.65.21-13a3.75,3.75,0,0,0-.13-.6c-.29.23-.58.36-.71.59-.54.88-1,1.8-1.54,2.68-1,1.7-2.09,3.38-3.16,5.06a4.45,4.45,0,0,1-1,1,3.27,3.27,0,0,1-4.87-.59c-1.5-2.12-2.84-4.36-4.23-6.57-.51-.8-.95-1.64-1.64-2.85-.09,1-.18,1.46-.19,2,0,3.64,0,7.29,0,10.93,0,.81-.11,1.62-.17,2.52-2.14,1.21-4.25.79-6.54.41a16.1,16.1,0,0,1-.38-2.49q0-12.37,0-24.74a3.39,3.39,0,0,1,1-3l2.92-.56Z" transform="translate(-218.25 -165)"/><path class="cls-3" d="M554.07,644.83a3.69,3.69,0,0,0,.53-2.53c0-3.85,0-7.69,0-11.54a5.08,5.08,0,0,1,.55-3,5.54,5.54,0,0,1,5.65-.26,7.62,7.62,0,0,1,.94,3.82q0,11.85,0,23.7a3.11,3.11,0,0,1-.89,2.76,8.09,8.09,0,0,1-5.89-.46,6.54,6.54,0,0,1-2.28-2.28c-3.17-4.4-6.28-8.85-9.42-13.27-.39-.55-.84-1.06-1.5-1.87-.1.82-.2,1.33-.21,1.83,0,4.39,0,8.79,0,13.19,0,.87-.15,1.74-.23,2.7a11.32,11.32,0,0,1-5.86.19,9.24,9.24,0,0,1-.53-1.56,11.41,11.41,0,0,1-.07-1.85q0-12,0-23.9c0-1,.13-1.89.2-2.84a4.93,4.93,0,0,1,1.42-.65c2.74-.27,5.15.2,6.86,2.72,3,4.43,6.11,8.8,9.19,13.18C552.92,643.52,553.43,644.06,554.07,644.83Z" transform="translate(-218.25 -165)"/><path class="cls-3" d="M525.47,666.52c8.84,0,15.7,7.24,15.67,16.6a15.48,15.48,0,0,1-15.75,15.39c-10.38.11-16-7.88-16.13-16.31C509.1,672.6,518.1,666.18,525.47,666.52Zm-8.66,16.14a9.18,9.18,0,0,0,2.33,6.61,8,8,0,0,0,10.58,1.29,9.13,9.13,0,0,0,3.61-5.78c1.19-5.44-1.48-10.1-6.92-11.51a4,4,0,0,0-1.81-.1C520,674.31,516.34,678.27,516.81,682.66Z" transform="translate(-218.25 -165)"/><path class="cls-3" d="M567.78,697.16c-.42.33-.61.58-.85.64a11,11,0,0,1-5.28.06,3.05,3.05,0,0,1-1.46-1.07c-.7-.83-1.27-1.78-1.91-2.66-1.13-1.56-2.21-3.15-3.4-4.65a3,3,0,0,0-3.34-1.37c-.59.53-.48,1.25-.49,1.92,0,1.72,0,3.43,0,5.15,0,.74-.12,1.48-.2,2.34-2.26,1-4.47.52-6.51.4a3.1,3.1,0,0,1-.82-2.65c0-3.36,0-6.72,0-10.09q0-7.41,0-14.82c0-1.09-.09-2.22,1.06-3.24l2.2-.2,4.49-.34a2,2,0,0,1,.41,0c2.59.24,5.2.3,7.75.77,4.79.88,7.05,5.53,7.32,9.09a9.85,9.85,0,0,1-3.39,8.25,3.42,3.42,0,0,0-1.45,2.16c.44.58.94,1.31,1.51,2a23.69,23.69,0,0,1,3.8,6.33A16,16,0,0,1,567.78,697.16ZM551.3,680.51a7.45,7.45,0,0,0,5.53.16,3.52,3.52,0,0,0,1.13-5.88,6.45,6.45,0,0,0-5.4-1.28,1.57,1.57,0,0,0-1.36,1.36A17,17,0,0,0,551.3,680.51Z" transform="translate(-218.25 -165)"/><path class="cls-3" d="M595.76,667.06c.65,0,1.46-.13,2.27-.13,2.48,0,5-.08,7.42,0,6.65.24,11.71,3.2,14.69,9.23a14.65,14.65,0,0,1,1.18,9.24,25.16,25.16,0,0,1-1.32,4.33,11.71,11.71,0,0,1-7.68,7.2,19.09,19.09,0,0,1-6.65,1.17c-2.6-.07-5.21,0-7.82,0-.75,0-1.49-.08-2-.11a2.26,2.26,0,0,1-1.13-1.88c-.05-.54-.07-1.09-.07-1.64q0-9.06,0-18.12a13.13,13.13,0,0,1,.14-2.26,12.13,12.13,0,0,0,0-4.29A2.5,2.5,0,0,1,595.76,667.06Zm6.51,6.28a7,7,0,0,0-.26,1.36c0,1.37.14,2.73.15,4.1,0,3.36,0,6.72,0,10.07,0,.8.15,1.59.22,2.32,1.35.68,2.6.41,3.81.43a7.36,7.36,0,0,0,6.29-3.35c3-4.32,2.32-8.11-.42-12a4.79,4.79,0,0,0-1.8-1.31,19.29,19.29,0,0,0-6.9-1.82A4.61,4.61,0,0,0,602.27,673.34Z" transform="translate(-218.25 -165)"/><path class="cls-3" d="M331.36,686l1,1.49c1.19,1.85,2.42,3.67,3.55,5.56a17.15,17.15,0,0,1,1.22,2.82,1.65,1.65,0,0,1-.51,2.07,24.69,24.69,0,0,1-5.86.07c-.42-.56-.86-1.15-1.29-1.75-1.72-2.39-3.39-4.83-5.17-7.18-1-1.3-1.5-1.35-3.43-.77a20.37,20.37,0,0,0-.26,2.08c0,1.65,0,3.3,0,4.95,0,1.18-.06,1.18-1,2.47a9.88,9.88,0,0,1-4.62.14,1.9,1.9,0,0,1-1-1.66c-.05-.55-.07-1.1-.07-1.65V670.27a4.37,4.37,0,0,1,.69-3,12.07,12.07,0,0,1,2-.32c3.37,0,6.74-.09,10.1,0a11.65,11.65,0,0,1,7.84,3.67,5.68,5.68,0,0,1,1.64,3.7,27.47,27.47,0,0,1,0,5.13,7.35,7.35,0,0,1-3.25,5.28A18.3,18.3,0,0,0,331.36,686Zm-10.56-5.57a19.26,19.26,0,0,0,6.05.06,3.45,3.45,0,0,0,1.56-5.12,7.22,7.22,0,0,0-6.5-2.2,5.22,5.22,0,0,0-1.13.68A20.46,20.46,0,0,0,320.8,680.39Z" transform="translate(-218.25 -165)"/><path class="cls-3" d="M395.77,681.09c1.36,1.64,2.79,3.21,4,4.91a45,45,0,0,1,3.47,5.36,22.14,22.14,0,0,1,2.39,5.66,1.43,1.43,0,0,1-1.43,1c-1.77,0-3.55,0-5.44,0-.44-.66-.88-1.26-1.26-1.89-1.6-2.64-3.16-5.3-4.78-7.93a18.84,18.84,0,0,0-1.49-1.85,4.17,4.17,0,0,0-3,3.87c-.08,1.72,0,3.44-.05,5.16a2.48,2.48,0,0,1-1.1,2.46,14.59,14.59,0,0,1-5.23,0,9.9,9.9,0,0,1-.7-1.47,9.63,9.63,0,0,1-.44-2.43,72.25,72.25,0,0,1,.19-10.91,21.29,21.29,0,0,0,.14-2.88c0-3.36,0-6.73,0-10.1a3.3,3.3,0,0,1,1-2.94,12.32,12.32,0,0,1,4.84-.08,3,3,0,0,1,1.26,2.78c0,2.2,0,4.4,0,6.6,0,.59.09,1.17.17,2.16,1.53-1.81,2.82-3.31,4.06-4.83,1-1.28,2-2.63,3.05-3.89a23.32,23.32,0,0,1,2.27-2.39,3.11,3.11,0,0,1,2.64-.88,11.29,11.29,0,0,0,1.84-.1,6.05,6.05,0,0,1,3,.25,1.62,1.62,0,0,1,0,2.31c-1.2,1.66-2.44,3.31-3.74,4.9-1.7,2.06-3.49,4.06-5.22,6.11A5.69,5.69,0,0,0,395.77,681.09Z" transform="translate(-218.25 -165)"/><path class="cls-3" d="M430.25,692.32c1.17,1.77.88,3.52.36,5.47a17,17,0,0,1-2.26.29q-8.76,0-17.51,0c-.67,0-1.34-.12-2-.18a6.84,6.84,0,0,1-.84-4.29,44.68,44.68,0,0,0,0-9.25,8.74,8.74,0,0,1-.07-1c.09-4.4.17-8.78.27-13.17a4.55,4.55,0,0,1,.64-3,10.65,10.65,0,0,1,1.6-.24q8.65,0,17.3,0a14.22,14.22,0,0,1,1.71.2c.86,1.61.94,2.89.38,5.16a6.84,6.84,0,0,1-4,1.07c-2.61,0-5.22,0-7.83,0-.73,0-1.46.12-2.2.19a8.64,8.64,0,0,0-.23,5,2.84,2.84,0,0,0,2.49.73c2.61,0,5.22,0,7.82,0,.81,0,1.61.14,2.37.22,1.19,2,1,3.91.14,6-.74.07-1.48.19-2.21.2-2.2,0-4.4,0-6.59,0a8.43,8.43,0,0,0-3.71.73,12.8,12.8,0,0,0,.24,4.93c2.29.61,4.64.07,6.93.33S427.7,692.11,430.25,692.32Z" transform="translate(-218.25 -165)"/><path class="cls-3" d="M530.79,651.88a11.2,11.2,0,0,1,.12,5.86,10.36,10.36,0,0,1-1.82.32q-9.17,0-18.34,0a8.23,8.23,0,0,1-1.2-.16,3.64,3.64,0,0,1-.92-3.08c.12-1.5.21-3,.21-4.52,0-6.45,0-12.91,0-19.37a4.8,4.8,0,0,1,.58-3.09,2.73,2.73,0,0,1,.82-.36c2-.22,4-.5,5.93-.55,3.5-.09,7,0,10.51,0a6.64,6.64,0,0,1,3.54.83,5.4,5.4,0,0,1-.14,5.4c-.86.08-1.66.21-2.47.22-3,0-6,0-9.07,0-.81,0-1.62.1-2.55.16a9.75,9.75,0,0,0,0,6c1,.09,1.8.21,2.61.22,2.68,0,5.35,0,8,0,.81,0,1.61.13,2.56.21.31,2.06,1,4-.24,6-.75.07-1.56.21-2.36.22-2.68,0-5.35,0-8,0-.81,0-1.62.12-2.48.19a7.05,7.05,0,0,0-.19,5,20.45,20.45,0,0,0,2.21.24c3.37,0,6.73,0,10.1,0C529,651.66,529.82,651.79,530.79,651.88Z" transform="translate(-218.25 -165)"/><path class="cls-3" d="M681.61,667.36a12.55,12.55,0,0,1,5.53-.29,8.25,8.25,0,0,1,1.16,4.44c.07,4.46.12,8.93,0,13.39a19.28,19.28,0,0,1-1.31,6.84,9.72,9.72,0,0,1-8.4,6.35,13.59,13.59,0,0,0-1.43.16,14.41,14.41,0,0,1-7.48-.73c-3.31-1-5.24-3.48-6.23-6.63a20.55,20.55,0,0,1-.91-9.14,17,17,0,0,0,.12-2.47c0-3.09,0-6.18,0-9.27a4,4,0,0,1,.69-2.76c1.69-.61,3.57-.33,5.25-.2a2.76,2.76,0,0,1,1.15,2.71c0,3.36,0,6.73,0,10.09,0,1.79,0,3.57,0,5.36a8.94,8.94,0,0,0,1.47,4.65,3.41,3.41,0,0,0,2.85,1.78l1,.08c3,.14,4.67-1.12,5.27-4.05a20,20,0,0,0,.37-3.26c.18-4.94.29-9.88.46-14.81A16.92,16.92,0,0,1,681.61,667.36Z" transform="translate(-218.25 -165)"/><path class="cls-3" d="M590.51,649.58c0-1-.67-1.43-1.34-1.91a13.79,13.79,0,0,0-4.5-2,21.69,21.69,0,0,1-5.93-2.82c-5-3.18-4.25-11.38-.19-13.81a12.57,12.57,0,0,1,6.72-2.18,28.75,28.75,0,0,1,6.91.87,9.13,9.13,0,0,1,3.48,1.74,2.63,2.63,0,0,1,1.23,1.93,8.59,8.59,0,0,1-1.61,3.19,2.33,2.33,0,0,1-3.08.87,8.3,8.3,0,0,1-1.82-1,9.27,9.27,0,0,0-4-1.41c-1.91-.28-3.12.58-3.75,2.63.15,1,1,1.43,1.81,1.78,1.88.82,3.81,1.55,5.7,2.37a34.05,34.05,0,0,1,3.69,1.81,8.76,8.76,0,0,1,1.52,13.81,10.76,10.76,0,0,1-7,3,26.23,26.23,0,0,1-12-2.26,13.18,13.18,0,0,1-1.17-.63c-.35-2.47,1.23-4.22,2.07-6.07a2.78,2.78,0,0,1,2.55.31c1.32.57,2.62,1.2,4,1.7a7.16,7.16,0,0,0,2.2.43C588.19,652.15,589.08,651.64,590.51,649.58Z" transform="translate(-218.25 -165)"/><path class="cls-3" d="M699.78,688.06c-.71,3.24.16,6.32-.79,9.44-2.22,1-4.53.64-7,.31a14.66,14.66,0,0,1-.44-2.07c0-1,0-1.92,0-2.88.11-2.6.31-5.2.34-7.8.06-4.87,0-9.74,0-14.61,0-1,.14-1.89.19-2.54a2.25,2.25,0,0,1,2.07-1c3.56,0,7.14-.17,10.7,0,3.9.25,8.44,2.88,9.54,7.81a10.79,10.79,0,0,1-1.21,8.14c-1.93,3.21-5,4.58-8.6,4.84-.89.06-1.78,0-2.67,0C701.28,687.85,700.62,688,699.78,688.06Zm-.22-14.84c.11,2.84-.72,5.45.69,8,.75.06,1.36.13,2,.14a12.58,12.58,0,0,0,1.84-.07,3,3,0,0,0,2.93-2.69c.27-1.35.48-2.81-.72-3.83-1.82-1.54-4-1.88-6.71-1.53Z" transform="translate(-218.25 -165)"/><path class="cls-3" d="M657.05,689.37c1.47,1.22,2,3.06,2.83,5a7,7,0,0,1-1.28,1.32c-2.45,1.43-5,2.61-7.94,2.46-1.65-.09-3.3-.05-4.95,0-4.66.08-8.16-2-10.84-5.69a16.61,16.61,0,0,1-2.62-6.44,15.82,15.82,0,0,1,3.43-13.68,11.42,11.42,0,0,1,2.24-2.1,18.27,18.27,0,0,1,9.31-3.59,15.56,15.56,0,0,1,10.91,3.57,4,4,0,0,1,1.55,2.58c-.55,1.8-2.15,2.89-3.57,4.29-.57-.33-1-.58-1.49-.86-1.1-.69-2.18-1.42-3.29-2.11a6.44,6.44,0,0,0-6.49-.1c-3.31,1.6-5.19,4.18-5.16,8,0,.82,0,1.65,0,2.47a7.93,7.93,0,0,0,7.16,7.26c2.58.16,5.06,0,7.29-1.57A4.16,4.16,0,0,1,657.05,689.37Z" transform="translate(-218.25 -165)"/><path class="cls-3" d="M305.8,676.66a16.45,16.45,0,0,0-1.77-1.34c-1.25-.68-2.54-1.32-3.85-1.9a2.84,2.84,0,0,0-1.41-.18c-5.59.69-9.68,5-8.54,11.06.51,2.73,2.18,4.51,4,6.28a3.82,3.82,0,0,0,1.46.71,10.38,10.38,0,0,0,8.19-.58c.37-.18.72-.38,1.08-.58a2.85,2.85,0,0,1,3.3,0,4.08,4.08,0,0,1,1.87,3.69,2.92,2.92,0,0,1-1.4,2.17,11.07,11.07,0,0,1-6.55,2.1,39.56,39.56,0,0,0-4.08.29,21.45,21.45,0,0,0-2.65-.28,9.19,9.19,0,0,1-5.74-2A15.8,15.8,0,0,1,283,685.45a16.17,16.17,0,0,1,3.28-13.15,13.67,13.67,0,0,1,4.09-3.4,17.88,17.88,0,0,1,7.21-2.32,15.84,15.84,0,0,1,11.33,3.51,3.51,3.51,0,0,1,1.41,2.85A6,6,0,0,1,305.8,676.66Z" transform="translate(-218.25 -165)"/><path class="cls-3" d="M374.78,689.23c2,1.2,2.71,3,3,5.15a9.77,9.77,0,0,1-4.91,3.15c-3.75.83-7.56,1.46-11.4.44a14.33,14.33,0,0,1-10.71-10.36,17.51,17.51,0,0,1-.24-9.17A16.64,16.64,0,0,1,366,666.51a17.25,17.25,0,0,1,9.78,3.34c2.76,2.08,2.63,4.21-.31,6a16.33,16.33,0,0,1-1.59.74c-.59-.28-1.21-.55-1.8-.87a13.34,13.34,0,0,1-1.56-1c-4.84-3.6-11.3.26-12.56,4.51-.79,2.7-1,5.21.3,7.78s4.87,5.38,8.8,4.83a12.85,12.85,0,0,0,5.06-1.54A15.34,15.34,0,0,1,374.78,689.23Z" transform="translate(-218.25 -165)"/><path class="cls-3" d="M438.3,627.55c-.1,2.47-.46,4.48-2.1,5.83-2,0-3.79,0-5.57,0-3.73-.14-6.24,1.81-8.06,4.79a16,16,0,0,0-2,8.31c0,3.6,3.87,6.57,7.45,5.84,1.21-.24,2.38-.68,3.57-1,.45-.12.93-.16,1.44-.25l.71,1c-.08.75-.16,1.43-.21,2.12a4.09,4.09,0,0,1-2.78,3.73,12.22,12.22,0,0,1-6,1,27.46,27.46,0,0,1-6-1.36,8.77,8.77,0,0,1-5.83-7.13c-.93-5.44.47-10.35,3.22-15A17.34,17.34,0,0,1,430.35,627a38.48,38.48,0,0,1,5.15,0A17.8,17.8,0,0,1,438.3,627.55Z" transform="translate(-218.25 -165)"/><path class="cls-3" d="M457.32,651.39a6.5,6.5,0,0,1-.26,5.6,11.4,11.4,0,0,1-5.41,1.48c-1.16.06-2.34-.05-3.5,0a12.08,12.08,0,0,1-7.37-2.22,7.42,7.42,0,0,1-3.29-4.78,18.57,18.57,0,0,1-.05-8.16,23.77,23.77,0,0,1,5.5-11.12,6.29,6.29,0,0,1,.73-.73,19.2,19.2,0,0,1,12.08-4.56c1.37,0,2.75,0,4.12.11a14.36,14.36,0,0,1,2.22.54c1.29,1.93.13,3.55-.46,5.29l-1.64.87-.05-.24c-2.19,0-4.38-.15-6.56,0a7.13,7.13,0,0,0-5.43,3.36,15.08,15.08,0,0,0-2.77,10.72,4.91,4.91,0,0,0,3.26,4.17,6.66,6.66,0,0,0,4.81.39,12.42,12.42,0,0,1,2-.53C455.88,651.45,456.55,651.45,457.32,651.39Z" transform="translate(-218.25 -165)"/><path class="cls-3" d="M433.7,673.26a7.82,7.82,0,0,1-.36-5.8,4,4,0,0,1,2.74-.53c4.66,0,9.33,0,14,0,1.44,0,2.88,0,4.31,0a7.16,7.16,0,0,1,1.14.21c.8,1.48.89,2.66.44,5.23a2.24,2.24,0,0,1-2.12,1c-1.1,0-2.2,0-3.3,0-.67,0-1.34.09-1.84.13-.91.77-.74,1.64-.75,2.45,0,3.36,0,6.72,0,10.08,0,3,0,6,0,9.06,0,.8-.16,1.6-.25,2.45-2.05.85-4,.52-5.73.37a2.55,2.55,0,0,1-1.08-2.36c.05-4.66.15-9.32.2-14,0-1.23-.09-2.46-.14-3.69,0-1-.07-1.92-.12-2.88a2,2,0,0,0-.68-1.75Z" transform="translate(-218.25 -165)"/><path class="cls-3" d="M577.93,691.63c2.58,0,4.9,0,7.22,0a46.27,46.27,0,0,1,6.84.2c1,1.71.63,3.45.47,5.16a7.31,7.31,0,0,1-4,1c-5.15.08-10.3,0-15.44,0a12.13,12.13,0,0,1-1.91-.35,17.71,17.71,0,0,1-.36-2.5c0-6.52-.05-13.05,0-19.57,0-2.26.25-4.52.44-6.77.14-1.75,1-2.43,2.7-2.35a3.15,3.15,0,0,1,.61.06l2.32.51a2.43,2.43,0,0,1,1,2.22c0,1,0,2.06,0,3.09v16.48C577.85,689.71,577.89,690.52,577.93,691.63Z" transform="translate(-218.25 -165)"/><path class="cls-3" d="M411.37,627l1,1.43c-.48,2.63-1,5.32-1.46,8-.86,4.52-1.7,9-2.63,13.53-.46,2.28-1.06,4.54-1.66,6.79a8.19,8.19,0,0,1-.9,1.61c-2,0-4,.77-5.89-.83.09-.94.1-1.89.28-2.82q2-10.31,4-20.6c.42-2.08,1-4.13,1.46-6.05C407.41,626.37,409.37,627,411.37,627Z" transform="translate(-218.25 -165)"/><path class="cls-3" d="M341,667.19c2-.31,4-.72,6.13.43.08.81.23,1.54.23,2.28q0,12.65,0,25.29a18.83,18.83,0,0,1-.26,2.26,9.06,9.06,0,0,1-6.18.2,3.21,3.21,0,0,1-.64-2.5c0-2.2,0-4.39,0-6.58v-18.1A4.86,4.86,0,0,1,341,667.19Z" transform="translate(-218.25 -165)"/><path class="cls-3" d="M566.57,627.69c2.74-1.3,5-1.09,6.55.6,0,.44-.07.89-.13,1.33-.44,2.21-.85,4.43-1.37,6.63-.69,2.89-2.64,3.87-5.81,2.83a6.29,6.29,0,0,1-.42-1.6,44.88,44.88,0,0,1,.84-9A4.66,4.66,0,0,1,566.57,627.69Z" transform="translate(-218.25 -165)"/><path class="cls-2" d="M498.7,409.41s-4.61,12.66-8.19,17.71c2.27,4,7,7.7,8.19,22.71,1.05-15.06,6.28-18.9,8.27-22.71C503,421.53,498.7,409.41,498.7,409.41Z" transform="translate(-218.25 -165)"/></svg>